{
	"asset":{
		"generator":"Khronos glTF Blender I/O v4.0.44",
		"version":"2.0"
	},
	"scene":0,
	"scenes":[
		{
			"name":"Scene",
			"nodes":[
				0
			]
		}
	],
	"nodes":[
		{
			"mesh":0,
			"name":"Mesh_0.002"
		}
	],
	"materials":[
		{
			"doubleSided":true,
			"name":"Material_0.001",
			"pbrMetallicRoughness":{
				"baseColorTexture":{
					"index":0
				},
				"metallicFactor":0
			}
		},
		{
			"doubleSided":true,
			"name":"\u041c\u0430\u0442\u0435\u0440\u0438\u0430\u043b.003",
			"pbrMetallicRoughness":{
				"baseColorTexture":{
					"index":1
				},
				"metallicFactor":0,
				"roughnessFactor":0.5
			}
		}
	],
	"meshes":[
		{
			"name":"Mesh_0.002",
			"primitives":[
				{
					"attributes":{
						"COLOR_0":0,
						"POSITION":1,
						"NORMAL":2,
						"TEXCOORD_0":3
					},
					"indices":4,
					"material":0
				},
				{
					"attributes":{
						"COLOR_0":5,
						"POSITION":6,
						"NORMAL":7,
						"TEXCOORD_0":8
					},
					"indices":9,
					"material":1
				}
			]
		}
	],
	"textures":[
		{
			"sampler":0,
			"source":0
		},
		{
			"sampler":0,
			"source":1
		}
	],
	"images":[
		{
			"mimeType":"image/jpeg",
			"name":"Upscales.ai_1712140083849",
			"uri":"Upscales_ai_1712140083849.jpg"
		},
		{
			"mimeType":"image/png",
			"name":"IMG_9061",
			"uri":"IMG_9061.png"
		}
	],
	"accessors":[
		{
			"bufferView":0,
			"componentType":5123,
			"count":1900,
			"normalized":true,
			"type":"VEC4"
		},
		{
			"bufferView":1,
			"componentType":5126,
			"count":1900,
			"max":[
				0.238546222448349,
				0.6398227214813232,
				0.20803014934062958
			],
			"min":[
				-0.2949328124523163,
				-0.4550085663795471,
				-0.13660404086112976
			],
			"type":"VEC3"
		},
		{
			"bufferView":2,
			"componentType":5126,
			"count":1900,
			"type":"VEC3"
		},
		{
			"bufferView":3,
			"componentType":5126,
			"count":1900,
			"type":"VEC2"
		},
		{
			"bufferView":4,
			"componentType":5123,
			"count":7821,
			"type":"SCALAR"
		},
		{
			"bufferView":5,
			"componentType":5123,
			"count":12077,
			"normalized":true,
			"type":"VEC4"
		},
		{
			"bufferView":6,
			"componentType":5126,
			"count":12077,
			"max":[
				0.40308696031570435,
				0.6401851177215576,
				0.28165513277053833
			],
			"min":[
				-0.3720603287220001,
				-0.6796912550926208,
				-0.1644638180732727
			],
			"type":"VEC3"
		},
		{
			"bufferView":7,
			"componentType":5126,
			"count":12077,
			"type":"VEC3"
		},
		{
			"bufferView":8,
			"componentType":5126,
			"count":12077,
			"type":"VEC2"
		},
		{
			"bufferView":9,
			"componentType":5123,
			"count":62082,
			"type":"SCALAR"
		}
	],
	"bufferViews":[
		{
			"buffer":0,
			"byteLength":15200,
			"byteOffset":0,
			"target":34962
		},
		{
			"buffer":0,
			"byteLength":22800,
			"byteOffset":15200,
			"target":34962
		},
		{
			"buffer":0,
			"byteLength":22800,
			"byteOffset":38000,
			"target":34962
		},
		{
			"buffer":0,
			"byteLength":15200,
			"byteOffset":60800,
			"target":34962
		},
		{
			"buffer":0,
			"byteLength":15642,
			"byteOffset":76000,
			"target":34963
		},
		{
			"buffer":0,
			"byteLength":96616,
			"byteOffset":91644,
			"target":34962
		},
		{
			"buffer":0,
			"byteLength":144924,
			"byteOffset":188260,
			"target":34962
		},
		{
			"buffer":0,
			"byteLength":144924,
			"byteOffset":333184,
			"target":34962
		},
		{
			"buffer":0,
			"byteLength":96616,
			"byteOffset":478108,
			"target":34962
		},
		{
			"buffer":0,
			"byteLength":124164,
			"byteOffset":574724,
			"target":34963
		}
	],
	"samplers":[
		{
			"magFilter":9729,
			"minFilter":9987
		}
	],
	"buffers":[
		{
			"byteLength":698888,
			"uri":"buffalo.bin"
		}
	]
}
