{
	"asset":{
		"generator":"Khronos glTF Blender I/O v4.0.44",
		"version":"2.0"
	},
	"extensionsUsed":[
		"KHR_materials_unlit"
	],
	"scene":0,
	"scenes":[
		{
			"name":"Scene",
			"nodes":[
				0
			]
		}
	],
	"nodes":[
		{
			"mesh":0,
			"name":"mesh",
			"rotation":[
				0.70710688829422,
				0,
				0,
				0.7071066498756409
			],
			"scale":[
				0.5777672529220581,
				0.5777672529220581,
				0.5777672529220581
			]
		}
	],
	"materials":[
		{
			"extensions":{
				"KHR_materials_unlit":{}
			},
			"name":"Material_0",
			"pbrMetallicRoughness":{
				"baseColorTexture":{
					"index":0
				},
				"metallicFactor":0,
				"roughnessFactor":0.9
			}
		}
	],
	"meshes":[
		{
			"name":"Mesh_0",
			"primitives":[
				{
					"attributes":{
						"POSITION":0,
						"NORMAL":1,
						"TEXCOORD_0":2
					},
					"indices":3,
					"material":0
				}
			]
		}
	],
	"textures":[
		{
			"sampler":0,
			"source":0
		}
	],
	"images":[
		{
			"mimeType":"image/png",
			"name":"Image_0",
			"uri":"Image_0.png"
		}
	],
	"accessors":[
		{
			"bufferView":0,
			"componentType":5126,
			"count":253647,
			"max":[
				0.812309980392456,
				0.1580483615398407,
				0.8654002547264099
			],
			"min":[
				-0.812309980392456,
				-0.1580483615398407,
				-0.8654002547264099
			],
			"type":"VEC3"
		},
		{
			"bufferView":1,
			"componentType":5126,
			"count":253647,
			"type":"VEC3"
		},
		{
			"bufferView":2,
			"componentType":5126,
			"count":253647,
			"type":"VEC2"
		},
		{
			"bufferView":3,
			"componentType":5125,
			"count":254994,
			"type":"SCALAR"
		}
	],
	"bufferViews":[
		{
			"buffer":0,
			"byteLength":3043764,
			"byteOffset":0,
			"target":34962
		},
		{
			"buffer":0,
			"byteLength":3043764,
			"byteOffset":3043764,
			"target":34962
		},
		{
			"buffer":0,
			"byteLength":2029176,
			"byteOffset":6087528,
			"target":34962
		},
		{
			"buffer":0,
			"byteLength":1019976,
			"byteOffset":8116704,
			"target":34963
		}
	],
	"samplers":[
		{
			"magFilter":9729,
			"minFilter":9987,
			"wrapS":33071,
			"wrapT":33071
		}
	],
	"buffers":[
		{
			"byteLength":9136680,
			"uri":"jebus.bin"
		}
	]
}
