{"accessors" : [{"bufferView" : 0, "byteOffset" : 0, "componentType" : 5123, "count" : 45000, "type" : "SCALAR", "max" : [38033], "min" : [0]}, {"bufferView" : 1, "byteOffset" : 0, "componentType" : 5126, "count" : 38034, "type" : "VEC3", "max" : [0.45866137742996216, 0.7423744797706604, 0.42920953035354614], "min" : [-0.48029032349586487, -0.7394987940788269, -0.43838590383529663], "name" : "POSITION"}, {"bufferView" : 1, "byteOffset" : 12, "componentType" : 5126, "count" : 38034, "type" : "VEC2", "max" : [0.9995366334915161, 1.9995379447937012], "min" : [0, 1], "name" : "TEXCOORD_0"}], "asset" : {"generator" : "Aspose.3D 24.1.0", "version" : "2.0"}, "buffers" : [{"uri" : "data:application/octet-stream;base64,", "byteLength" : 990008}], "bufferViews" : [{"buffer" : 0, "byteOffset" : 0, "byteLength" : 90000, "target" : 34963}, {"buffer" : 0, "byteOffset" : 90004, "byteLength" : 900000, "byteStride" : 20, "target" : 34962}], "images" : [{"uri" : "data:image/png;base64,"}], "materials" : [{"pbrMetallicRoughness" : {"baseColorFactor" : [1, 1, 1, 1], "baseColorTexture" : {"index" : 0, "texCoord" : 0}, "metallicFactor" : 1, "roughnessFactor" : 1}, "emissiveFactor" : [0, 0, 0], "alphaMode" : "OPAQUE", "doubleSided" : false}], "meshes" : [{"primitives" : [{"attributes" : {"POSITION" : 1, "TEXCOORD_0" : 2}, "indices" : 0, "material" : 0, "mode" : 4}]}], "nodes" : [{"mesh" : 0, "name" : "mesh.obj"}, {"children" : [0], "name" : "world"}], "samplers" : [{"magFilter" : 9729, "minFilter" : 9729, "wrapS" : 10497, "wrapT" : 10497}], "scene" : 0, "scenes" : [{"nodes" : [1]}], "textures" : [{"sampler" : 0, "source" : 0, "name" : ""}]}