{
	"asset":{
		"generator":"Khronos glTF Blender I/O v4.0.44",
		"version":"2.0"
	},
	"scene":0,
	"scenes":[
		{
			"name":"Scene",
			"nodes":[
				1
			]
		}
	],
	"nodes":[
		{
			"mesh":0,
			"name":"mesh.obj"
		},
		{
			"children":[
				0
			],
			"name":"world"
		}
	],
	"materials":[
		{
			"name":"Material_0",
			"pbrMetallicRoughness":{
				"baseColorTexture":{
					"index":0
				}
			}
		}
	],
	"meshes":[
		{
			"name":"mesh.obj",
			"primitives":[
				{
					"attributes":{
						"POSITION":0,
						"NORMAL":1,
						"TEXCOORD_0":2
					},
					"indices":3,
					"material":0
				}
			]
		}
	],
	"textures":[
		{
			"sampler":0,
			"source":0
		}
	],
	"images":[
		{
			"mimeType":"image/png",
			"name":"Image_0",
			"uri":"Image_0.png"
		}
	],
	"accessors":[
		{
			"bufferView":0,
			"componentType":5126,
			"count":44982,
			"max":[
				0.45866137742996216,
				0.7423744797706604,
				0.42920953035354614
			],
			"min":[
				-0.48029032349586487,
				-0.7394987940788269,
				-0.43838590383529663
			],
			"type":"VEC3"
		},
		{
			"bufferView":1,
			"componentType":5126,
			"count":44982,
			"type":"VEC3"
		},
		{
			"bufferView":2,
			"componentType":5126,
			"count":44982,
			"type":"VEC2"
		},
		{
			"bufferView":3,
			"componentType":5123,
			"count":45000,
			"type":"SCALAR"
		}
	],
	"bufferViews":[
		{
			"buffer":0,
			"byteLength":539784,
			"byteOffset":0,
			"target":34962
		},
		{
			"buffer":0,
			"byteLength":539784,
			"byteOffset":539784,
			"target":34962
		},
		{
			"buffer":0,
			"byteLength":359856,
			"byteOffset":1079568,
			"target":34962
		},
		{
			"buffer":0,
			"byteLength":90000,
			"byteOffset":1439424,
			"target":34963
		}
	],
	"samplers":[
		{
			"magFilter":9729,
			"minFilter":9987
		}
	],
	"buffers":[
		{
			"byteLength":1529424,
			"uri":"tower.bin"
		}
	]
}
