{"extensionsUsed" : ["KHR_texture_transform", "KHR_materials_emissive_strength", "KHR_materials_specular", "KHR_materials_ior"], "extensionsRequired" : ["KHR_texture_transform"], "accessors" : [{"bufferView" : 0, "byteOffset" : 0, "componentType" : 5123, "count" : 3816, "type" : "SCALAR", "max" : [3545], "min" : [0]}, {"bufferView" : 1, "byteOffset" : 0, "componentType" : 5126, "count" : 3546, "type" : "VEC3", "max" : [13.892115592956543, 13.784631729125977, 44.26668167114258], "min" : [-13.892115592956543, -13.99941635131836, -50.15953063964844], "name" : "POSITION"}, {"bufferView" : 1, "byteOffset" : 12, "componentType" : 5126, "count" : 3546, "type" : "VEC3", "max" : [1.0000044107437134, 0.9999978542327881, 1.0000038146972656], "min" : [-1.0000044107437134, -0.9999978542327881, -0.9999978542327881], "name" : "NORMAL"}, {"bufferView" : 1, "byteOffset" : 24, "componentType" : 5126, "count" : 3546, "type" : "VEC2", "max" : [0.9727054238319397, 1.8519415855407715], "min" : [0.24693484604358673, 1.0038386583328247], "name" : "TEXCOORD_0"}, {"bufferView" : 0, "byteOffset" : 7632, "componentType" : 5123, "count" : 1422, "type" : "SCALAR", "max" : [1340], "min" : [0]}, {"bufferView" : 2, "byteOffset" : 0, "componentType" : 5126, "count" : 1341, "type" : "VEC3", "max" : [20.430402755737305, 22.661928176879883, 48.88578796386719], "min" : [-20.430402755737305, -0.8929308652877808, -58.61648941040039], "name" : "POSITION"}, {"bufferView" : 2, "byteOffset" : 12, "componentType" : 5126, "count" : 1341, "type" : "VEC3", "max" : [1.0000044107437134, 1.0000044107437134, 1.0000044107437134], "min" : [-1.0000044107437134, -1.0000044107437134, -1.0000044107437134], "name" : "NORMAL"}, {"bufferView" : 2, "byteOffset" : 24, "componentType" : 5126, "count" : 1341, "type" : "VEC2", "max" : [0.9961613416671753, 1.9348235130310059], "min" : [0.003838681150227785, 1.0038386583328247], "name" : "TEXCOORD_0"}, {"bufferView" : 3, "byteOffset" : 0, "componentType" : 5126, "normalized" : false, "count" : 2, "type" : "SCALAR", "max" : [1.3333333730697632], "min" : [0.03333333507180214]}, {"bufferView" : 3, "byteOffset" : 8, "componentType" : 5126, "normalized" : false, "count" : 2, "type" : "VEC3", "max" : [0, 0.17226140201091766, 0.0029591217171400785], "min" : [0, 0.17226140201091766, 0.0029591217171400785]}, {"bufferView" : 4, "byteOffset" : 0, "componentType" : 5126, "normalized" : false, "count" : 40, "type" : "SCALAR", "max" : [1.3333333730697632], "min" : [0.03333333507180214]}, {"bufferView" : 4, "byteOffset" : 160, "componentType" : 5126, "normalized" : false, "count" : 40, "type" : "VEC4", "max" : [0.70710688829422, 0.7071067690849304, 0.7049269676208496, 0.7071066498756409], "min" : [5.3385065257316455E-08, -0.7049270272254944, -0.7071067690849304, 5.338507591545749E-08]}, {"bufferView" : 5, "byteOffset" : 0, "componentType" : 5126, "normalized" : false, "count" : 2, "type" : "SCALAR", "max" : [1.3333333730697632], "min" : [0.03333333507180214]}, {"bufferView" : 5, "byteOffset" : 8, "componentType" : 5126, "normalized" : false, "count" : 2, "type" : "VEC3", "max" : [0, 17.189191818237305, 0.34188592433929443], "min" : [-5.826450433232822E-13, 17.189191818237305, 0.34188592433929443]}, {"bufferView" : 6, "byteOffset" : 0, "componentType" : 5126, "normalized" : false, "count" : 2, "type" : "SCALAR", "max" : [1.3333333730697632], "min" : [0.03333333507180214]}, {"bufferView" : 6, "byteOffset" : 8, "componentType" : 5126, "normalized" : false, "count" : 2, "type" : "VEC4", "max" : [0.1803765743970871, 0, 7.223917102526511E-15, 0.9835976362228394], "min" : [0.1803765743970871, 0, -0, 0.9835976362228394]}, {"bufferView" : 7, "byteOffset" : 0, "componentType" : 5126, "normalized" : false, "count" : 2, "type" : "SCALAR", "max" : [1.3333333730697632], "min" : [0.03333333507180214]}, {"bufferView" : 7, "byteOffset" : 8, "componentType" : 5126, "normalized" : false, "count" : 2, "type" : "VEC3", "max" : [0, 1.9037429410673212E-08, -1.8850079186449875E-06], "min" : [0, 1.9037429410673212E-08, -1.8850079186449875E-06]}, {"bufferView" : 8, "byteOffset" : 0, "componentType" : 5126, "normalized" : false, "count" : 2, "type" : "SCALAR", "max" : [1.3333333730697632], "min" : [0.03333333507180214]}, {"bufferView" : 8, "byteOffset" : 8, "componentType" : 5126, "normalized" : false, "count" : 2, "type" : "VEC4", "max" : [0, 0, -0, 1], "min" : [0, -4.235164736271502E-22, -0, 1]}], "animations" : [{"channels" : [{"sampler" : 0, "target" : {"node" : 2, "path" : "translation"}}, {"sampler" : 1, "target" : {"node" : 2, "path" : "rotation"}}], "samplers" : [{"input" : 8, "interpolation" : "LINEAR", "output" : 9}, {"input" : 10, "interpolation" : "LINEAR", "output" : 11}], "name" : "torchAction"}, {"channels" : [{"sampler" : 0, "target" : {"node" : 0, "path" : "translation"}}, {"sampler" : 1, "target" : {"node" : 0, "path" : "rotation"}}], "samplers" : [{"input" : 12, "interpolation" : "LINEAR", "output" : 13}, {"input" : 14, "interpolation" : "LINEAR", "output" : 15}], "name" : "torch_2Action"}, {"channels" : [{"sampler" : 0, "target" : {"node" : 1, "path" : "translation"}}, {"sampler" : 1, "target" : {"node" : 1, "path" : "rotation"}}], "samplers" : [{"input" : 16, "interpolation" : "LINEAR", "output" : 17}, {"input" : 18, "interpolation" : "LINEAR", "output" : 19}], "name" : "torchholderAction"}], "asset" : {"generator" : "Aspose.3D 24.1.0", "version" : "2.0"}, "buffers" : [{"uri" : "data:application/octet-stream;base64,", "byteLength" : 179104}], "bufferViews" : [{"buffer" : 0, "byteOffset" : 0, "byteLength" : 10476, "target" : 34963}, {"buffer" : 0, "byteOffset" : 10480, "byteLength" : 122112, "byteStride" : 32, "target" : 34962}, {"buffer" : 0, "byteOffset" : 132596, "byteLength" : 45504, "byteStride" : 32, "target" : 34962}, {"buffer" : 0, "byteOffset" : 178104, "byteLength" : 32}, {"buffer" : 0, "byteOffset" : 178140, "byteLength" : 800}, {"buffer" : 0, "byteOffset" : 178944, "byteLength" : 32}, {"buffer" : 0, "byteOffset" : 178980, "byteLength" : 40}, {"buffer" : 0, "byteOffset" : 179024, "byteLength" : 32}, {"buffer" : 0, "byteOffset" : 179060, "byteLength" : 40}], "images" : [{"uri" : "data:image/png;base64,"}, {"uri" : "data:image/png;base64,"}], "materials" : [{"name" : "Mat", "extensions" : {"KHR_materials_emissive_strength" : {"emissiveStrength" : 235}, "KHR_materials_specular" : {"specularColorFactor" : [2, 2, 2]}, "KHR_materials_ior" : {"ior" : 1.4500000476837158}}, "pbrMetallicRoughness" : {"baseColorFactor" : [1, 1, 1, 1], "baseColorTexture" : {"index" : 1, "texCoord" : 0}, "metallicFactor" : 1, "roughnessFactor" : 0.7975831031799316}, "emissiveTexture" : {"index" : 0, "texCoord" : 0}, "emissiveFactor" : [1, 1, 1], "alphaMode" : "OPAQUE", "doubleSided" : true}, {"name" : "Mat", "extensions" : {"KHR_materials_emissive_strength" : {"emissiveStrength" : 235}, "KHR_materials_specular" : {"specularColorFactor" : [2, 2, 2]}, "KHR_materials_ior" : {"ior" : 1.4500000476837158}}, "pbrMetallicRoughness" : {"baseColorFactor" : [1, 1, 1, 1], "baseColorTexture" : {"index" : 1, "texCoord" : 0}, "metallicFactor" : 1, "roughnessFactor" : 0.7975831031799316}, "emissiveTexture" : {"index" : 0, "texCoord" : 0}, "emissiveFactor" : [1, 1, 1], "alphaMode" : "OPAQUE", "doubleSided" : true}], "meshes" : [{"primitives" : [{"attributes" : {"POSITION" : 1, "NORMAL" : 2, "TEXCOORD_0" : 3}, "indices" : 0, "material" : 0, "mode" : 4}]}, {"primitives" : [{"attributes" : {"POSITION" : 5, "NORMAL" : 6, "TEXCOORD_0" : 7}, "indices" : 4, "material" : 1, "mode" : 4}]}], "nodes" : [{"mesh" : 0, "rotation" : [0.18037657596327197, -0, -0, 0.9835976264935606], "scale" : [1, 1.0000000012086614, 1.0000000012086614], "translation" : [0, 17.189191818237305, 0.34188592433929443], "name" : "torch_2"}, {"mesh" : 1, "name" : "torchholder"}, {"children" : [0, 1], "rotation" : [0.7071068286895688, -0, -0, 0.7071067336835231], "scale" : [0.009999999776482582, 0.010000001120071208, 0.010000001120071208], "translation" : [0, 0.17226140201091766, 0.0029591217171400785], "name" : "torch"}], "samplers" : [{"magFilter" : 9729, "minFilter" : 9987, "wrapS" : 10497, "wrapT" : 10497}, {"magFilter" : 9729, "minFilter" : 9987, "wrapS" : 10497, "wrapT" : 10497}], "scene" : 0, "scenes" : [{"nodes" : [2]}], "textures" : [{"sampler" : 0, "source" : 0, "name" : ""}, {"sampler" : 1, "source" : 1, "name" : ""}]}